<svg xmlns="http://www.w3.org/2000/svg" viewBox="0 0 100 100">
  <defs>
    <linearGradient id="roseGradient" x1="0%" y1="0%" x2="100%" y2="100%">
      <stop offset="0%" stop-color="#ec4899" />
      <stop offset="100%" stop-color="#be185d" />
    </linearGradient>
  </defs>
  <!-- Background circle with smooth gradient -->
  <circle cx="50" cy="50" r="46" fill="url(#roseGradient)" />
  <!-- Heart icon in the center -->
  <path d="M50 72.5c-.8 0-1.5-.3-2.1-.9L30.7 54.4C26.5 50.2 26.5 43.4 30.7 39.2c4.2-4.2 11-4.2 15.2 0l4.1 4.1 4.1-4.1c4.2-4.2 11-4.2 15.2 0 4.2 4.2 4.2 11 0 15.2L52.1 71.6c-.6.6-1.3.9-2.1.9z" fill="#ffffff" />
  <!-- Ring/Wedding band accent overlay -->
  <path d="M50 20A30 30 0 0 1 80 50A30 30 0 0 1 50 80A30 30 0 0 1 20 50A30 30 0 0 1 50 20Z" fill="none" stroke="#fef08a" stroke-width="4" stroke-dasharray="10 6" opacity="0.9" />
</svg>
